<svg xmlns="http://www.w3.org/2000/svg" xmlns:xlink="http://www.w3.org/1999/xlink" viewBox="0 0 130.62 38.44"><defs><style>.cls-1{fill:url(#New_Gradient_Swatch_copy_2);}.cls-2,.cls-67{fill:#f5bc43;}.cls-3{fill:url(#New_Gradient_Swatch_copy_2-2);}.cls-4{fill:url(#New_Gradient_Swatch_copy_2-3);}.cls-5{fill:url(#linear-gradient);}.cls-6{fill:url(#New_Gradient_Swatch_copy_2-4);}.cls-7{fill:url(#Naranja);}.cls-77,.cls-8{fill:#fff;}.cls-8{opacity:0.1;}.cls-9{clip-path:url(#clip-path);}.cls-10{clip-path:url(#clip-path-2);}.cls-11{opacity:0.5;}.cls-12{fill:#f59b43;}.cls-13{fill:none;}.cls-14{clip-path:url(#clip-path-3);}.cls-15{fill:url(#New_Gradient_Swatch_copy_2-7);}.cls-16{fill:url(#New_Gradient_Swatch_copy_2-8);}.cls-17{fill:url(#New_Gradient_Swatch_copy_2-9);}.cls-18{fill:url(#New_Gradient_Swatch_copy_2-10);}.cls-19{fill:url(#New_Gradient_Swatch_copy_2-11);}.cls-20{fill:url(#New_Gradient_Swatch_copy_2-12);}.cls-21{fill:url(#New_Gradient_Swatch_copy_2-13);}.cls-22{fill:url(#New_Gradient_Swatch_copy_2-14);}.cls-23{fill:url(#New_Gradient_Swatch_copy_2-15);}.cls-24{fill:url(#New_Gradient_Swatch_copy_2-16);}.cls-25{fill:url(#New_Gradient_Swatch_copy_2-17);}.cls-26{fill:url(#New_Gradient_Swatch_copy_2-18);}.cls-27{fill:url(#New_Gradient_Swatch_copy_2-19);}.cls-28,.cls-69,.cls-72{opacity:0.2;}.cls-28{fill:url(#linear-gradient-2);}.cls-29{fill:url(#New_Gradient_Swatch_copy_2-20);}.cls-30{fill:url(#New_Gradient_Swatch_copy_2-21);}.cls-31{fill:url(#New_Gradient_Swatch_copy_2-22);}.cls-32{fill:url(#New_Gradient_Swatch_copy_2-23);}.cls-33{fill:url(#New_Gradient_Swatch_copy_2-24);}.cls-34{fill:url(#New_Gradient_Swatch_copy_2-25);}.cls-35{fill:url(#New_Gradient_Swatch_copy_2-26);}.cls-36{fill:url(#New_Gradient_Swatch_copy_2-27);}.cls-37{fill:url(#New_Gradient_Swatch_copy_2-28);}.cls-38{fill:url(#New_Gradient_Swatch_copy_2-29);}.cls-39{fill:url(#New_Gradient_Swatch_copy_2-30);}.cls-40{fill:url(#New_Gradient_Swatch_copy_2-31);}.cls-41{fill:url(#New_Gradient_Swatch_copy_2-32);}.cls-42{fill:url(#New_Gradient_Swatch_copy_2-33);}.cls-43{fill:url(#New_Gradient_Swatch_copy_2-34);}.cls-44{fill:url(#New_Gradient_Swatch_copy_2-35);}.cls-45,.cls-50,.cls-60{opacity:0.6;}.cls-45{fill:url(#linear-gradient-3);}.cls-46{fill:url(#New_Gradient_Swatch_copy_2-36);}.cls-47{fill:url(#New_Gradient_Swatch_copy_2-37);}.cls-48{fill:url(#New_Gradient_Swatch_copy_2-38);}.cls-49{clip-path:url(#clip-path-4);}.cls-51{fill:url(#linear-gradient-4);}.cls-52{fill:url(#linear-gradient-5);}.cls-53{fill:url(#linear-gradient-6);}.cls-54{fill:url(#linear-gradient-7);}.cls-55{fill:url(#linear-gradient-8);}.cls-56{fill:url(#linear-gradient-9);}.cls-57{fill:url(#linear-gradient-10);}.cls-58{fill:url(#linear-gradient-11);}.cls-59,.cls-66,.cls-67{opacity:0.4;}.cls-59{fill:url(#linear-gradient-12);}.cls-60{fill:url(#linear-gradient-13);}.cls-61{fill:url(#linear-gradient-14);}.cls-62{fill:url(#linear-gradient-15);}.cls-63{fill:url(#linear-gradient-16);}.cls-64{fill:url(#linear-gradient-17);}.cls-65{clip-path:url(#clip-path-5);}.cls-68{clip-path:url(#clip-path-6);}.cls-70{fill:#f56005;opacity:0.8;}.cls-71{clip-path:url(#clip-path-7);}.cls-72{fill:#f59243;}.cls-73{fill:#1a171b;opacity:0.09;}.cls-74{fill:url(#New_Gradient_Swatch_copy_2-41);}.cls-75{fill:url(#New_Gradient_Swatch_copy_2-42);}.cls-76{fill:url(#Naranja-3);}</style><linearGradient id="New_Gradient_Swatch_copy_2" x1="-10.26" y1="6.6" x2="48.99" y2="30.26" gradientUnits="userSpaceOnUse"><stop offset="0.11" stop-color="#f5d279"/><stop offset="0.23" stop-color="#f5d15d"/><stop offset="0.49" stop-color="#f59f43"/><stop offset="0.53" stop-color="#e89150"/><stop offset="0.61" stop-color="#c66b72"/><stop offset="0.73" stop-color="#8f2ea9"/><stop offset="0.75" stop-color="#8623b2"/><stop offset="1" stop-color="#f54bf1"/></linearGradient><linearGradient id="New_Gradient_Swatch_copy_2-2" x1="0.84" y1="10.71" x2="43.89" y2="25.88" xlink:href="#New_Gradient_Swatch_copy_2"/><linearGradient id="New_Gradient_Swatch_copy_2-3" x1="-6.49" y1="11.57" x2="45.77" y2="30.61" xlink:href="#New_Gradient_Swatch_copy_2"/><linearGradient id="linear-gradient" x1="-3.91" y1="18.54" x2="43.91" y2="31.75" xlink:href="#New_Gradient_Swatch_copy_2"/><linearGradient id="New_Gradient_Swatch_copy_2-4" x1="3" y1="20.48" x2="35.81" y2="35.02" xlink:href="#New_Gradient_Swatch_copy_2"/><linearGradient id="Naranja" x1="2.73" y1="25.71" x2="20.78" y2="25.71" gradientUnits="userSpaceOnUse"><stop offset="0" stop-color="#f5d279"/><stop offset="0.49" stop-color="#f4d03e"/><stop offset="0.67" stop-color="#f4c23f"/><stop offset="1" stop-color="#f59f43"/></linearGradient><clipPath id="clip-path"><path class="cls-1" d="M13.47,37.89a18.27,18.27,0,0,1,1.08-8.78c.81-2.21,1.57-4.45,1.18-6.86a4.73,4.73,0,0,0-3.68-4.07c-1.63-.45-3.28-.86-4.87-1.43A10.25,10.25,0,0,1,2.5,13.37a5.53,5.53,0,0,0-.91-.82,2.28,2.28,0,0,1,.13-3.87A4.22,4.22,0,0,1,3.05,8,21.34,21.34,0,0,0,7.21,6.42l.3-.15C8.84,5.58,10.13,4.8,11.41,4c.63-.39,1.29-.74,1.93-1.12S15.71.9,16.66.4c.11-.06-.68,1-.57,1a15.82,15.82,0,0,1,2.26-1c.3-.09-1,.88-.7.81a16.41,16.41,0,0,1,7-.08,3.14,3.14,0,0,0,1.95-.3c1.31-.7,2.21-.75,3.22.34a12.52,12.52,0,0,1,1.54,2.37,20.21,20.21,0,0,0,1.52,2.75A15.35,15.35,0,0,1,36,19.06c-.7,4.21-3.41,7-7,9-2.84,1.57-5.86,2.83-8.81,4.2C17.62,33.51,15.05,34.83,13.47,37.89Z"/></clipPath><clipPath id="clip-path-2"><path class="cls-2" d="M20.26,32.27c2.14-1,4.32-1.93,6.43-3A16.05,16.05,0,0,0,12.49,5.75,15.81,15.81,0,0,0,6,7c-.79.35-2.4.6-2.52,1.52,0,.36-.33,1.34-.55,1.45s-.73.36-1.17.63-.81.49-1.1.7a2,2,0,0,0,.91,1.27,5.53,5.53,0,0,1,.91.82,10.25,10.25,0,0,0,4.68,3.38c1.59.57,3.24,1,4.87,1.43a4.73,4.73,0,0,1,3.68,4.07c.39,2.41-.37,4.65-1.18,6.86a18.39,18.39,0,0,0-1.09,8.72h0C15.09,34.81,17.64,33.5,20.26,32.27Z"/></clipPath><clipPath id="clip-path-3"><path class="cls-3" d="M30.23,27.43c.41-.23.8-.47,1.18-.72a15.46,15.46,0,0,0-.19-19.28c-.07-.08.53,0,.46-.12s-.78-.25-.84-.32l-.33-.36c-.08-.09,1.21,0,1.11,0S30.07,6.17,30,6.07A15.47,15.47,0,0,0,13.52,2.82c-.32.18-.64.36-.95.56-1,.63-2.06,1.25-3.12,1.83A15.46,15.46,0,0,0,4.23,13.4a10.17,10.17,0,0,0,4.11,2.7c1.59.58,3.24,1,4.87,1.44a4.73,4.73,0,0,1,3.68,4.07c.39,2.41-.37,4.65-1.18,6.86a20.82,20.82,0,0,0-1,3.54,15.74,15.74,0,0,0,4.47.66h.14c.67-.37,1.36-.7,2.06-1C24.37,30.25,27.39,29,30.23,27.43Z"/></clipPath><linearGradient id="New_Gradient_Swatch_copy_2-7" x1="5.88" y1="16.23" x2="6.16" y2="16.23" xlink:href="#New_Gradient_Swatch_copy_2"/><linearGradient id="New_Gradient_Swatch_copy_2-8" x1="4.72" y1="15.53" x2="5.04" y2="15.53" xlink:href="#New_Gradient_Swatch_copy_2"/><linearGradient id="New_Gradient_Swatch_copy_2-9" x1="14.5" y1="29.61" x2="14.77" y2="29.61" xlink:href="#New_Gradient_Swatch_copy_2"/><linearGradient id="New_Gradient_Swatch_copy_2-10" x1="5.28" y1="15.9" x2="5.58" y2="15.9" xlink:href="#New_Gradient_Swatch_copy_2"/><linearGradient id="New_Gradient_Swatch_copy_2-11" x1="0.79" y1="10.52" x2="8.48" y2="10.52" xlink:href="#New_Gradient_Swatch_copy_2"/><linearGradient id="New_Gradient_Swatch_copy_2-12" x1="11.62" y1="4.1" x2="11.7" y2="4.1" xlink:href="#New_Gradient_Swatch_copy_2"/><linearGradient id="New_Gradient_Swatch_copy_2-13" x1="10.82" y1="4.58" x2="10.93" y2="4.58" xlink:href="#New_Gradient_Swatch_copy_2"/><linearGradient id="New_Gradient_Swatch_copy_2-14" x1="9.29" y1="5.51" x2="9.31" y2="5.51" xlink:href="#New_Gradient_Swatch_copy_2"/><linearGradient id="New_Gradient_Swatch_copy_2-15" x1="6.54" y1="16.54" x2="6.77" y2="16.54" xlink:href="#New_Gradient_Swatch_copy_2"/><linearGradient id="New_Gradient_Swatch_copy_2-16" x1="13.55" y1="35.37" x2="18.42" y2="35.37" xlink:href="#New_Gradient_Swatch_copy_2"/><linearGradient id="New_Gradient_Swatch_copy_2-17" x1="13.81" y1="31.88" x2="14.2" y2="31.88" xlink:href="#New_Gradient_Swatch_copy_2"/><linearGradient id="New_Gradient_Swatch_copy_2-18" x1="29.89" y1="27.64" x2="30.47" y2="27.64" xlink:href="#New_Gradient_Swatch_copy_2"/><linearGradient id="New_Gradient_Swatch_copy_2-19" x1="15.71" y1="25.85" x2="15.89" y2="25.85" xlink:href="#New_Gradient_Swatch_copy_2"/><linearGradient id="linear-gradient-2" x1="17.24" y1="10.29" x2="41.56" y2="17.44" gradientUnits="userSpaceOnUse"><stop offset="0.11" stop-color="#f5d279"/><stop offset="0.23" stop-color="#f5d15d"/><stop offset="0.49" stop-color="#f59f43"/><stop offset="0.52" stop-color="#f59851"/><stop offset="0.58" stop-color="#f58678"/><stop offset="0.67" stop-color="#f568b4"/><stop offset="0.74" stop-color="#f54bf1"/><stop offset="0.95" stop-color="#8623b2"/></linearGradient><linearGradient id="New_Gradient_Swatch_copy_2-20" x1="15.48" y1="26.7" x2="15.71" y2="26.7" xlink:href="#New_Gradient_Swatch_copy_2"/><linearGradient id="New_Gradient_Swatch_copy_2-21" x1="14.23" y1="30.52" x2="14.46" y2="30.52" xlink:href="#New_Gradient_Swatch_copy_2"/><linearGradient id="New_Gradient_Swatch_copy_2-22" x1="15.07" y1="27.96" x2="15.35" y2="27.96" xlink:href="#New_Gradient_Swatch_copy_2"/><linearGradient id="New_Gradient_Swatch_copy_2-23" x1="6.11" y1="15.88" x2="6.38" y2="15.88" xlink:href="#New_Gradient_Swatch_copy_2"/><linearGradient id="New_Gradient_Swatch_copy_2-24" x1="4.94" y1="15.18" x2="5.26" y2="15.18" xlink:href="#New_Gradient_Swatch_copy_2"/><linearGradient id="New_Gradient_Swatch_copy_2-25" x1="14.73" y1="29.26" x2="15" y2="29.26" xlink:href="#New_Gradient_Swatch_copy_2"/><linearGradient id="New_Gradient_Swatch_copy_2-26" x1="5.51" y1="15.54" x2="5.81" y2="15.54" xlink:href="#New_Gradient_Swatch_copy_2"/><linearGradient id="New_Gradient_Swatch_copy_2-27" x1="1.02" y1="10.26" x2="8.74" y2="10.26" xlink:href="#New_Gradient_Swatch_copy_2"/><linearGradient id="New_Gradient_Swatch_copy_2-28" x1="11.85" y1="3.74" x2="11.93" y2="3.74" xlink:href="#New_Gradient_Swatch_copy_2"/><linearGradient id="New_Gradient_Swatch_copy_2-29" x1="11.04" y1="4.23" x2="11.16" y2="4.23" xlink:href="#New_Gradient_Swatch_copy_2"/><linearGradient id="New_Gradient_Swatch_copy_2-30" x1="9.52" y1="5.16" x2="9.54" y2="5.16" xlink:href="#New_Gradient_Swatch_copy_2"/><linearGradient id="New_Gradient_Swatch_copy_2-31" x1="6.76" y1="16.19" x2="6.99" y2="16.19" xlink:href="#New_Gradient_Swatch_copy_2"/><linearGradient id="New_Gradient_Swatch_copy_2-32" x1="13.78" y1="35.02" x2="18.64" y2="35.02" xlink:href="#New_Gradient_Swatch_copy_2"/><linearGradient id="New_Gradient_Swatch_copy_2-33" x1="14.04" y1="31.53" x2="14.43" y2="31.53" xlink:href="#New_Gradient_Swatch_copy_2"/><linearGradient id="New_Gradient_Swatch_copy_2-34" x1="30.12" y1="27.28" x2="30.69" y2="27.28" xlink:href="#New_Gradient_Swatch_copy_2"/><linearGradient id="New_Gradient_Swatch_copy_2-35" x1="15.94" y1="25.5" x2="16.12" y2="25.5" xlink:href="#New_Gradient_Swatch_copy_2"/><linearGradient id="linear-gradient-3" x1="3.22" y1="3.58" x2="46.02" y2="19.74" gradientUnits="userSpaceOnUse"><stop offset="0" stop-color="#f5d279"/><stop offset="0.14" stop-color="#f5d15d"/><stop offset="0.16" stop-color="#f5ca5a"/><stop offset="0.24" stop-color="#f5b34d"/><stop offset="0.32" stop-color="#f5a446"/><stop offset="0.38" stop-color="#f59f43"/><stop offset="0.52" stop-color="#f59e45"/><stop offset="0.57" stop-color="#f59b4c"/><stop offset="0.61" stop-color="#f59557"/><stop offset="0.63" stop-color="#f58d68"/><stop offset="0.66" stop-color="#f5827e"/><stop offset="0.68" stop-color="#f5759a"/><stop offset="0.7" stop-color="#f566ba"/><stop offset="0.72" stop-color="#f554de"/><stop offset="0.73" stop-color="#f54bf1"/><stop offset="0.85" stop-color="#8623b2"/></linearGradient><linearGradient id="New_Gradient_Swatch_copy_2-36" x1="15.71" y1="26.35" x2="15.94" y2="26.35" xlink:href="#New_Gradient_Swatch_copy_2"/><linearGradient id="New_Gradient_Swatch_copy_2-37" x1="14.45" y1="30.17" x2="14.69" y2="30.17" xlink:href="#New_Gradient_Swatch_copy_2"/><linearGradient id="New_Gradient_Swatch_copy_2-38" x1="15.3" y1="27.61" x2="15.58" y2="27.61" xlink:href="#New_Gradient_Swatch_copy_2"/><clipPath id="clip-path-4"><path class="cls-4" d="M27.69,28.8A15.47,15.47,0,0,0,8.3,5.84l-.69.37C4.37,7.72.8,10.41,1.51,12.48l.08.07a5.53,5.53,0,0,1,.91.82,10.25,10.25,0,0,0,4.68,3.38c1.59.57,3.24,1,4.87,1.43a4.73,4.73,0,0,1,3.68,4.07c.39,2.41-.37,4.65-1.18,6.86A19.21,19.21,0,0,0,13.34,35a16.29,16.29,0,0,0,1.86.12h.36a17.9,17.9,0,0,1,4.7-2.88C22.74,31.12,25.27,30.05,27.69,28.8Z"/></clipPath><linearGradient id="linear-gradient-4" x1="4.84" y1="16.49" x2="5.15" y2="16.49" xlink:href="#linear-gradient-3"/><linearGradient id="linear-gradient-5" x1="13.24" y1="32.23" x2="13.29" y2="32.23" xlink:href="#linear-gradient-3"/><linearGradient id="linear-gradient-6" x1="13.07" y1="33.1" x2="13.1" y2="33.1" xlink:href="#linear-gradient-3"/><linearGradient id="linear-gradient-7" x1="6.03" y1="17.14" x2="6.66" y2="17.14" xlink:href="#linear-gradient-3"/><linearGradient id="linear-gradient-8" x1="3.8" y1="15.77" x2="3.98" y2="15.77" xlink:href="#linear-gradient-3"/><linearGradient id="linear-gradient-9" x1="4.3" y1="16.14" x2="4.54" y2="16.14" xlink:href="#linear-gradient-3"/><linearGradient id="linear-gradient-10" x1="5.42" y1="16.82" x2="5.8" y2="16.82" xlink:href="#linear-gradient-3"/><linearGradient id="linear-gradient-11" x1="17.74" y1="33.55" x2="18.67" y2="33.55" xlink:href="#linear-gradient-3"/><linearGradient id="linear-gradient-12" x1="10.54" y1="15.3" x2="36.54" y2="21.39" xlink:href="#linear-gradient-3"/><linearGradient id="linear-gradient-13" x1="8.67" y1="14.04" x2="36.58" y2="21.65" xlink:href="#linear-gradient-3"/><linearGradient id="linear-gradient-14" x1="13.44" y1="31.39" x2="13.51" y2="31.39" xlink:href="#linear-gradient-3"/><linearGradient id="linear-gradient-15" x1="19.75" y1="32.54" x2="20.82" y2="32.54" xlink:href="#linear-gradient-3"/><linearGradient id="linear-gradient-16" x1="13.69" y1="30.55" x2="13.76" y2="30.55" xlink:href="#linear-gradient-3"/><linearGradient id="linear-gradient-17" x1="18.8" y1="33.02" x2="19.75" y2="33.02" xlink:href="#linear-gradient-3"/><clipPath id="clip-path-5"><path class="cls-5" d="M1.59,12.55a5.53,5.53,0,0,1,.91.82,10.25,10.25,0,0,0,4.68,3.38c1.59.57,3.24,1,4.87,1.43a4.73,4.73,0,0,1,3.68,4.07c.39,2.41-.37,4.65-1.18,6.86a18.27,18.27,0,0,0-1.08,8.78c1.58-3.06,4.15-4.38,6.79-5.62,1.52-.71,3.06-1.38,4.58-2.09A16.05,16.05,0,0,0,.68,11.27,2.73,2.73,0,0,0,1.59,12.55Z"/></clipPath><clipPath id="clip-path-6"><path class="cls-6" d="M1.59,12.55a5.53,5.53,0,0,1,.91.82,10.25,10.25,0,0,0,4.68,3.38c1.59.57,3.24,1,4.87,1.43a4.73,4.73,0,0,1,3.68,4.07c.39,2.41-.37,4.65-1.18,6.86a18.27,18.27,0,0,0-1.08,8.78c1.58-3.06,4.15-4.38,6.79-5.62l2.46-1.12a16.24,16.24,0,0,0,.51-4,16.06,16.06,0,0,0-22-14.92A3,3,0,0,0,1.59,12.55Z"/></clipPath><clipPath id="clip-path-7"><path class="cls-7" d="M7.18,16.75c1.59.57,3.24,1,4.87,1.43a4.73,4.73,0,0,1,3.68,4.07c.39,2.41-.37,4.65-1.18,6.86a18.27,18.27,0,0,0-1.08,8.78c1.58-3.06,4.15-4.38,6.79-5.62l.31-.14a16.45,16.45,0,0,0,.21-2.55A16.06,16.06,0,0,0,4.72,13.52a16.22,16.22,0,0,0-2,.13A10.28,10.28,0,0,0,7.18,16.75Z"/></clipPath><linearGradient id="New_Gradient_Swatch_copy_2-41" x1="9.55" y1="10.18" x2="39.63" y2="42.37" xlink:href="#New_Gradient_Swatch_copy_2"/><linearGradient id="New_Gradient_Swatch_copy_2-42" x1="7.55" y1="6.96" x2="25.23" y2="6.96" xlink:href="#New_Gradient_Swatch_copy_2"/><linearGradient id="Naranja-3" x1="15.2" y1="7.03" x2="18.11" y2="7.03" xlink:href="#Naranja"/></defs><g id="Layer_2" data-name="Layer 2"><g id="Layer_1-2" data-name="Layer 1"><path class="cls-8" d="M14.56,29.11a18.17,18.17,0,0,0-1.09,8.79.35.35,0,0,0,0,.18l0,.09c-.49-2.2-.83-3.41-.62-4.74.09-.58.29-1.73.43-2.3s.45-1.45.61-1.93.54-1.59.7-2.12a15.2,15.2,0,0,0,.51-2.21,9.82,9.82,0,0,0-.05-2.75,3.2,3.2,0,0,0-.78-1.74,4.25,4.25,0,0,0-2.1-1.65c-1.15-.38-2.23-.61-3.23-.89a20.14,20.14,0,0,1-4-1.55,5.37,5.37,0,0,1-1.65-1.17c-.26-.25-1.11-1.24-1.5-1.63-.21-.21-.63-.61-.86-.79a3.36,3.36,0,0,1-.77-1c-.68-1.47,1.59-3,1.62-3.1-.52,1-1.26,3.11-.24,4a5.16,5.16,0,0,1,.91.83,10.3,10.3,0,0,0,4.68,3.37c1.59.57,3.24,1,4.87,1.43a4.73,4.73,0,0,1,3.68,4.07C16.12,24.66,15.36,26.9,14.56,29.11Z"/><path class="cls-1" d="M13.47,37.89a18.27,18.27,0,0,1,1.08-8.78c.81-2.21,1.57-4.45,1.18-6.86a4.73,4.73,0,0,0-3.68-4.07c-1.63-.45-3.28-.86-4.87-1.43A10.25,10.25,0,0,1,2.5,13.37a5.53,5.53,0,0,0-.91-.82,2.28,2.28,0,0,1,.13-3.87A4.22,4.22,0,0,1,3.05,8,21.34,21.34,0,0,0,7.21,6.42l.3-.15C8.84,5.58,10.13,4.8,11.41,4c.63-.39,1.29-.74,1.93-1.12S15.71.9,16.66.4c.11-.06-.68,1-.57,1a15.82,15.82,0,0,1,2.26-1c.3-.09-1,.88-.7.81a16.41,16.41,0,0,1,7-.08,3.14,3.14,0,0,0,1.95-.3c1.31-.7,2.21-.75,3.22.34a12.52,12.52,0,0,1,1.54,2.37,20.21,20.21,0,0,0,1.52,2.75A15.35,15.35,0,0,1,36,19.06c-.7,4.21-3.41,7-7,9-2.84,1.57-5.86,2.83-8.81,4.2C17.62,33.51,15.05,34.83,13.47,37.89Z"/><g class="cls-9"><path class="cls-2" d="M20.26,32.27c2.14-1,4.32-1.93,6.43-3A16.05,16.05,0,0,0,12.49,5.75,15.81,15.81,0,0,0,6,7c-.79.35-2.4.6-2.52,1.52,0,.36-.33,1.34-.55,1.45s-.73.36-1.17.63-.81.49-1.1.7a2,2,0,0,0,.91,1.27,5.53,5.53,0,0,1,.91.82,10.25,10.25,0,0,0,4.68,3.38c1.59.57,3.24,1,4.87,1.43a4.73,4.73,0,0,1,3.68,4.07c.39,2.41-.37,4.65-1.18,6.86a18.39,18.39,0,0,0-1.09,8.72h0C15.09,34.81,17.64,33.5,20.26,32.27Z"/><g class="cls-10"><g class="cls-11"><path class="cls-2" d="M13.93,30.16l-.06.17Z"/><path class="cls-2" d="M13.7,30.86l0,.13Z"/><path class="cls-2" d="M15.19,35.52l.49-.42Z"/><path class="cls-2" d="M19.86,32.68l-.57.27Z"/><path class="cls-2" d="M13,34.61a.22.22,0,0,0,0,.08A.22.22,0,0,1,13,34.61Z"/><path class="cls-2" d="M13.33,32.32l0,.15Z"/><path class="cls-2" d="M16.19,34.72l-.47.35Z"/><path class="cls-2" d="M12.93,35.45h0v0Z"/><path class="cls-2" d="M13.07,33.84s0,.09,0,.14S13.06,33.88,13.07,33.84Z"/><path class="cls-2" d="M13.49,31.64l0,.12Z"/><path class="cls-2" d="M24.56,30.53l-1.34.61Z"/><path class="cls-2" d="M16.73,34.35c-.14.09-.27.17-.4.27C16.46,34.52,16.59,34.44,16.73,34.35Z"/><path class="cls-2" d="M21.6,31.88l-.22.1Z"/><path class="cls-2" d="M14.79,4.63a15.5,15.5,0,0,0-6.9,1.62c-.23.13-.65.15-.88.27s-1.1.41-1.45.66a18.73,18.73,0,0,1,6.52-1A16.06,16.06,0,0,1,28.14,22.21a15.93,15.93,0,0,1-1.86,7.5l1-.5A15.48,15.48,0,0,0,14.79,4.63Z"/><path class="cls-2" d="M26,29.83l-1.17.55Z"/><path class="cls-2" d="M19.13,33l-.42.21Z"/><path class="cls-2" d="M17.34,34l-.47.28Z"/><path class="cls-2" d="M18,33.61l-.56.32Z"/><path class="cls-2" d="M18.54,33.32l-.45.23Z"/></g></g><ellipse class="cls-12" cx="4.04" cy="9.15" rx="4.77" ry="2.99" transform="translate(-5.28 5.54) rotate(-45)"/></g><path class="cls-13" d="M29.07,28.07c-2.84,1.57-5.86,2.83-8.81,4.2-.7.33-1.39.66-2.06,1a15.4,15.4,0,0,0,12.05-5.95C29.87,27.6,29.48,27.84,29.07,28.07Z"/><path class="cls-3" d="M30.23,27.43c.41-.23.8-.47,1.18-.72a15.46,15.46,0,0,0-.19-19.28c-.07-.08.53,0,.46-.12s-.78-.25-.84-.32l-.33-.36c-.08-.09,1.21,0,1.11,0S30.07,6.17,30,6.07A15.47,15.47,0,0,0,13.52,2.82c-.32.18-.64.36-.95.56-1,.63-2.06,1.25-3.12,1.83A15.46,15.46,0,0,0,4.23,13.4a10.17,10.17,0,0,0,4.11,2.7c1.59.58,3.24,1,4.87,1.44a4.73,4.73,0,0,1,3.68,4.07c.39,2.41-.37,4.65-1.18,6.86a20.82,20.82,0,0,0-1,3.54,15.74,15.74,0,0,0,4.47.66h.14c.67-.37,1.36-.7,2.06-1C24.37,30.25,27.39,29,30.23,27.43Z"/><g class="cls-14"><path class="cls-15" d="M5.88,16.16l.28.15Z"/><path class="cls-16" d="M4.72,15.42a3.62,3.62,0,0,0,.32.22A3.62,3.62,0,0,1,4.72,15.42Z"/><path class="cls-17" d="M14.77,29.21l-.27.8Z"/><path class="cls-18" d="M5.28,15.81l.3.18Z"/><path class="cls-19" d="M3.29,14.14A16,16,0,0,1,8.48,5.75,24.07,24.07,0,0,1,3.27,8.13a4.22,4.22,0,0,0-1.33.65,2.28,2.28,0,0,0-.13,3.87,5.53,5.53,0,0,1,.91.82,9.74,9.74,0,0,0,1.82,1.81A10.3,10.3,0,0,1,3.29,14.14Z"/><path class="cls-20" d="M11.7,4.07l-.07,0h0Z"/><path class="cls-21" d="M10.82,4.61l.11-.07Z"/><path class="cls-22" d="M9.29,5.51h0Z"/><path class="cls-23" d="M6.54,16.49l.23.1Z"/><path class="cls-24" d="M18.42,33.4h-.14a15.74,15.74,0,0,1-4.47-.66A17.83,17.83,0,0,0,13.69,38a10.81,10.81,0,0,1,4.73-4.59Z"/><path class="cls-25" d="M13.81,32.75c.1-.59.24-1.17.39-1.74C14.05,31.58,13.91,32.16,13.81,32.75Z"/><path class="cls-26" d="M30.47,27.45l-.58.37Z"/><path class="cls-27" d="M15.71,26.28c.07-.28.13-.57.18-.85C15.84,25.71,15.78,26,15.71,26.28Z"/><path class="cls-28" d="M33.05,6.32a20.21,20.21,0,0,1-1.52-2.75A12.52,12.52,0,0,0,30,1.2c-1-1.09-1.91-1-3.22-.34a3.14,3.14,0,0,1-1.95.3A15.91,15.91,0,0,0,13.4,2.8c-.48.28-1.74,1.08-2.23,1.36.16-.09,1.25-.51,1.41-.6A15.46,15.46,0,0,1,30.47,27.45a12.07,12.07,0,0,0,5.78-8.29A15.35,15.35,0,0,0,33.05,6.32Z"/><path class="cls-29" d="M15.71,26.28c-.07.28-.14.57-.23.85C15.57,26.85,15.64,26.56,15.71,26.28Z"/><path class="cls-30" d="M14.46,30.12c-.08.27-.16.53-.23.8C14.3,30.65,14.38,30.39,14.46,30.12Z"/><path class="cls-31" d="M15.35,27.55c-.09.28-.18.55-.28.83C15.17,28.1,15.26,27.83,15.35,27.55Z"/><path class="cls-32" d="M6.11,15.81l.27.14Z"/><path class="cls-33" d="M4.94,15.07l.32.22Z"/><path class="cls-34" d="M15,28.86c-.1.26-.19.53-.27.8C14.81,29.39,14.9,29.12,15,28.86Z"/><path class="cls-35" d="M5.51,15.45a2.2,2.2,0,0,0,.3.19A2.2,2.2,0,0,1,5.51,15.45Z"/><path class="cls-36" d="M3.51,13.78A15.45,15.45,0,0,1,8.74,5.6,23.54,23.54,0,0,1,3.49,7.78a4.22,4.22,0,0,0-1.33.65A2.28,2.28,0,0,0,2,12.3a5.56,5.56,0,0,1,.92.82,10.33,10.33,0,0,0,1.81,1.81A9.63,9.63,0,0,1,3.51,13.78Z"/><path class="cls-37" d="M11.93,3.72l-.08,0h0Z"/><path class="cls-38" d="M11,4.26l.12-.07Z"/><path class="cls-39" d="M9.52,5.16h0Z"/><path class="cls-40" d="M6.76,16.14l.23.1Z"/><path class="cls-41" d="M18.64,33.05h-.13A15.63,15.63,0,0,1,14,32.4a17.81,17.81,0,0,0-.13,5.24,10.86,10.86,0,0,1,4.73-4.59Z"/><path class="cls-42" d="M14,32.39a17.27,17.27,0,0,1,.39-1.73A17.27,17.27,0,0,0,14,32.39Z"/><path class="cls-43" d="M30.69,27.1l-.57.37Z"/><path class="cls-44" d="M15.94,25.93c.07-.28.13-.57.18-.86C16.07,25.36,16,25.65,15.94,25.93Z"/><path class="cls-45" d="M33.28,6a18.76,18.76,0,0,1-1.52-2.75A13.22,13.22,0,0,0,30.22.85c-1-1.1-1.92-1-3.23-.34A3.2,3.2,0,0,1,25,.81a15.76,15.76,0,0,0-11.36,1.7L11.4,3.81c.16-.09,1.25-.51,1.41-.6A15.46,15.46,0,0,1,34,17.59a15.84,15.84,0,0,1-3.17,9.69,12.33,12.33,0,0,0,5.67-8.47A15.34,15.34,0,0,0,33.28,6Z"/><path class="cls-46" d="M15.94,25.93c-.07.28-.15.56-.23.84C15.79,26.49,15.87,26.21,15.94,25.93Z"/><path class="cls-47" d="M14.69,29.77c-.09.26-.16.53-.24.79C14.53,30.3,14.6,30,14.69,29.77Z"/><path class="cls-48" d="M15.58,27.19c-.09.28-.19.56-.28.84C15.39,27.75,15.49,27.47,15.58,27.19Z"/></g><path class="cls-13" d="M20.26,32.27a17.9,17.9,0,0,0-4.7,2.88A15.44,15.44,0,0,0,27.69,28.8C25.27,30.05,22.74,31.12,20.26,32.27Z"/><path class="cls-13" d="M7.61,6.21l.69-.37Z"/><path class="cls-4" d="M27.69,28.8A15.47,15.47,0,0,0,8.3,5.84l-.69.37C4.37,7.72.8,10.41,1.51,12.48l.08.07a5.53,5.53,0,0,1,.91.82,10.25,10.25,0,0,0,4.68,3.38c1.59.57,3.24,1,4.87,1.43a4.73,4.73,0,0,1,3.68,4.07c.39,2.41-.37,4.65-1.18,6.86A19.21,19.21,0,0,0,13.34,35a16.29,16.29,0,0,0,1.86.12h.36a17.9,17.9,0,0,1,4.7-2.88C22.74,31.12,25.27,30.05,27.69,28.8Z"/><g class="cls-49"><g class="cls-50"><path class="cls-51" d="M5.15,16.58l-.31-.17Z"/><path class="cls-52" d="M13.29,32.1a2.38,2.38,0,0,0,0,.26A2.38,2.38,0,0,1,13.29,32.1Z"/><path class="cls-53" d="M13.07,33.17h0a.68.68,0,0,1,0-.14Z"/><path class="cls-54" d="M6.66,17.26c-.21-.07-.42-.16-.63-.25C6.24,17.1,6.45,17.19,6.66,17.26Z"/><path class="cls-55" d="M4,15.84,3.8,15.7Z"/><path class="cls-56" d="M4.54,16.22l-.24-.16Z"/><path class="cls-57" d="M5.8,16.91l-.38-.19Z"/><path class="cls-58" d="M18.67,33.31c-.32.15-.62.31-.93.48C18.05,33.62,18.35,33.46,18.67,33.31Z"/><path class="cls-59" d="M17.54,2.89A15.46,15.46,0,0,0,11.84,4c-.32.18-.64.36-.95.56-1,.63-2.23,1.1-3.28,1.67h0a16.12,16.12,0,0,1,7.07-1.47,15.47,15.47,0,0,1,12.5,24.58c-2,1-4.13,2-6.2,2.9,2.55-1.16,5.13-2.28,7.57-3.64.41-.22.8-.46,1.18-.71a15.46,15.46,0,0,0-12.19-25Z"/><path class="cls-60" d="M17.73,2.6A15.38,15.38,0,0,0,12,3.69l-1,.55c-1,.63-2.22,1.1-3.28,1.68h0a16,16,0,0,1,7.07-1.47A15.46,15.46,0,0,1,27.36,29c-2,1-4.12,2-6.2,2.91,2.55-1.16,5.13-2.28,7.58-3.64.4-.23.79-.46,1.18-.71a15.47,15.47,0,0,0-12.19-25Z"/><path class="cls-61" d="M13.51,31.25c0,.09,0,.18-.07.27C13.46,31.43,13.49,31.34,13.51,31.25Z"/><path class="cls-62" d="M19.75,32.79l1.07-.5Z"/><path class="cls-63" d="M13.76,30.43c0,.08,0,.16-.07.24C13.71,30.59,13.74,30.51,13.76,30.43Z"/><path class="cls-64" d="M19.75,32.79l-.95.45Z"/></g></g><path class="cls-13" d="M20.26,32.27c-2.62,1.23-5.17,2.54-6.75,5.56A16.06,16.06,0,0,0,26.69,29.3C24.58,30.34,22.4,31.27,20.26,32.27Z"/><path class="cls-5" d="M1.59,12.55a5.53,5.53,0,0,1,.91.82,10.25,10.25,0,0,0,4.68,3.38c1.59.57,3.24,1,4.87,1.43a4.73,4.73,0,0,1,3.68,4.07c.39,2.41-.37,4.65-1.18,6.86a18.27,18.27,0,0,0-1.08,8.78c1.58-3.06,4.15-4.38,6.79-5.62,1.52-.71,3.06-1.38,4.58-2.09A16.05,16.05,0,0,0,.68,11.27,2.73,2.73,0,0,0,1.59,12.55Z"/><g class="cls-65"><g class="cls-66"><path class="cls-2" d="M13.76,30.23l.18-.51Z"/><path class="cls-2" d="M13.6,30.74l.06-.2Z"/><path class="cls-2" d="M23.59,31.09l-1.65.75Z"/><path class="cls-2" d="M11.88,6.36A16,16,0,0,0,0,11.61a16.5,16.5,0,0,1,1.89-1.42c.94-.53-1.23,1-1.21,1.08A18.11,18.11,0,0,1,9.23,9a16,16,0,0,1,15,21.78l1.85-.88A16.05,16.05,0,0,0,11.88,6.36Z"/><path class="cls-2" d="M12.9,38.44c1.58-3,4.13-4.33,6.75-5.56C17,34.11,14.48,35.42,12.9,38.44Z"/><path class="cls-2" d="M13.3,31.77v0Z"/><path class="cls-2" d="M13.44,31.25s0-.07,0-.11S13.45,31.22,13.44,31.25Z"/></g><path class="cls-2" d="M14.06,29.93l.18-.5Z"/><path class="cls-2" d="M13.9,30.44l.06-.2Z"/><path class="cls-2" d="M23.89,30.79l-1.65.75Z"/><path class="cls-67" d="M12.18,6.06A16,16,0,0,0,.3,11.31,16.5,16.5,0,0,1,2.19,9.89C3.13,9.36,1,10.93,1,11A18.11,18.11,0,0,1,9.53,8.71a16,16,0,0,1,9.58,3.17l.39.3.27.22a16,16,0,0,1,4.76,18.09c.62-.28,1.24-.57,1.85-.87A16.06,16.06,0,0,0,12.18,6.06Z"/><path class="cls-2" d="M13.2,38.14c1.58-3,4.13-4.33,6.75-5.55C17.33,33.81,14.78,35.12,13.2,38.14Z"/><path class="cls-2" d="M13.6,31.47v0Z"/><path class="cls-2" d="M13.74,31l0-.1Z"/></g><path class="cls-6" d="M1.59,12.55a5.53,5.53,0,0,1,.91.82,10.25,10.25,0,0,0,4.68,3.38c1.59.57,3.24,1,4.87,1.43a4.73,4.73,0,0,1,3.68,4.07c.39,2.41-.37,4.65-1.18,6.86a18.27,18.27,0,0,0-1.08,8.78c1.58-3.06,4.15-4.38,6.79-5.62l2.46-1.12a16.24,16.24,0,0,0,.51-4,16.06,16.06,0,0,0-22-14.92A3,3,0,0,0,1.59,12.55Z"/><g class="cls-68"><g class="cls-69"><path class="cls-12" d="M13.73,30.6a1.18,1.18,0,0,0,.07-.2A1.18,1.18,0,0,1,13.73,30.6Z"/><path class="cls-12" d="M13.58,31.12l0-.11Z"/><path class="cls-12" d="M13.9,30.1l.18-.51Z"/><path class="cls-12" d="M13,38.3c1.59-3,4.14-4.33,6.76-5.55C17.17,34,14.62,35.28,13,38.3Z"/><path class="cls-12" d="M12,6.22A16,16,0,0,0,.14,11.47a2.66,2.66,0,0,0,1,1.56,2.89,2.89,0,0,1-.35-.35A16.06,16.06,0,0,1,22.25,31.62c1.33-.6,2.66-1.2,4-1.84A16.06,16.06,0,0,0,12,6.22Z"/><path class="cls-12" d="M19.79,32.75l1.48-.68Z"/><path class="cls-12" d="M13.44,31.63v0Z"/></g></g><path class="cls-70" d="M15.36,7.24a2,2,0,0,1,1.46-1c.59,0,1.84.09,1.84.34a3.37,3.37,0,0,1-1.95,1.11C16.12,7.72,15.36,7.49,15.36,7.24Z"/><path class="cls-7" d="M7.18,16.75c1.59.57,3.24,1,4.87,1.43a4.73,4.73,0,0,1,3.68,4.07c.39,2.41-.37,4.65-1.18,6.86a18.27,18.27,0,0,0-1.08,8.78c1.58-3.06,4.15-4.38,6.79-5.62l.31-.14a16.45,16.45,0,0,0,.21-2.55A16.06,16.06,0,0,0,4.72,13.52a16.22,16.22,0,0,0-2,.13A10.28,10.28,0,0,0,7.18,16.75Z"/><g class="cls-71"><path class="cls-72" d="M7,11.43a15.91,15.91,0,0,0-5.95,1.14,3.89,3.89,0,0,0,.36.34,5.61,5.61,0,0,1,.92.83l.22.27a16.35,16.35,0,0,1,2-.13A16.06,16.06,0,0,1,20.6,29.94a15.31,15.31,0,0,1-.21,2.55h0l2.15-1a15.79,15.79,0,0,0,.51-4A16,16,0,0,0,7,11.43Z"/><path class="cls-72" d="M7,11.43a15.91,15.91,0,0,0-5.95,1.14,3.89,3.89,0,0,0,.36.34,5.61,5.61,0,0,1,.92.83l.22.27a16.35,16.35,0,0,1,2-.13A16.06,16.06,0,0,1,20.6,29.94a15.31,15.31,0,0,1-.21,2.55h0l2.15-1a15.79,15.79,0,0,0,.51-4A16,16,0,0,0,7,11.43Z"/></g><path class="cls-73" d="M13.41,34C15,30.9,17.5,29.6,20.15,28.36c3-1.38,6-2.63,8.81-4.21a14.86,14.86,0,0,0,7.33-10,18.66,18.66,0,0,1-.23,4.32c-.71,4.2-3.41,7-7,9-2.84,1.58-5.86,2.83-8.81,4.21-2.64,1.24-5.21,2.56-6.79,5.62A14.25,14.25,0,0,1,13.41,34Z"/><path class="cls-74" d="M13.35,34.88c1.58-3.06,4.15-4.4,6.8-5.63,3-1.38,6-2.63,8.81-4.21a14.86,14.86,0,0,0,7.33-10,18.55,18.55,0,0,1-.23,4.31c-.71,4.21-3.41,7-7,9-2.84,1.58-5.86,2.83-8.81,4.21-2.64,1.23-5.21,2.55-6.79,5.62A19.59,19.59,0,0,1,13.35,34.88Z"/><path class="cls-75" d="M20.74,6.67a.49.49,0,0,1-.2.27,8.41,8.41,0,0,1-4.41,1.59c-1.28-.16-2.66-.89-2.59-1.44s1.51-1.58,2.78-1.71a1.93,1.93,0,0,1,.48,0C18.09,5.55,20.81,6.12,20.74,6.67Z"/><path class="cls-76" d="M15.2,7.28a2,2,0,0,1,1.46-1c.58,0,1.45.14,1.45.39a2.29,2.29,0,0,1-1.56,1.06C16,7.76,15.2,7.53,15.2,7.28Z"/><path class="cls-77" d="M68,9.67c-1.23,0-2.53.67-2.53,2,0,1.69,2.1,2.09,3.59,2.62C72.31,15.42,76.33,17,76.33,22s-4.78,7.18-9,7.18a12.23,12.23,0,0,1-9.07-4.05l3.49-3.43c1.8,1.67,3.16,3,5.65,3,1.63,0,3.26-.76,3.26-2.56s-2.16-2.56-4.26-3.32c-3.09-1.16-6.31-2.62-6.31-7.11s4-6.51,7.84-6.51A12.43,12.43,0,0,1,75.8,8l-3,3.79A8,8,0,0,0,68,9.67Z"/><path class="cls-77" d="M89.62,29.21c-6.61,0-9.44-4.05-9.44-11.36V5.55h5.39V18.41c0,4.15,1.59,6.15,4.12,6.15s4.12-2,4.12-6.15V5.55h5.38v12.3C99.19,25.16,96.37,29.21,89.62,29.21Z"/><path class="cls-77" d="M115.37,19.11c2.52-1,4.82-3,4.82-6.48,0-5.12-4.89-7.08-8.71-7.08h-7.57V10h7.44c1.86,0,3.12,1.09,3.12,2.72,0,1.79-1.59,2.56-3.75,2.56h-6.81V28.81h5.38V19.74h.23l6.15,9.07h6.71C120.82,26.68,117.43,22,115.37,19.11Z"/><rect class="cls-77" x="87.46" y="15.15" width="4.46" height="4.46" rx="2.23"/><path class="cls-77" d="M125.24,28.81V5.55h5.38V28.81Z"/></g></g></svg>